<?xml version="1.0" standalone="no"?><!DOCTYPE svg PUBLIC "-//W3C//DTD SVG 1.1//EN" "http://www.w3.org/Graphics/SVG/1.1/DTD/svg11.dtd"><svg t="1701670476252" class="icon" viewBox="0 0 1024 1024" version="1.1" xmlns="http://www.w3.org/2000/svg" p-id="7777" xmlns:xlink="http://www.w3.org/1999/xlink" width="200" height="200"><path d="M388.096 834.432h34.133333l40.277334-88.021333h108.501333l40.618667 88.021333h32.682666l-122.538666-273.450667h-9.344l-120.405334 264.874667-86.442666-111.445333c28.032 0 49.493333-6.528 64.341333-19.584 14.848-13.056 22.272-30.464 22.272-52.266667 0-11.52-2.304-21.973333-6.826667-31.445333a62.549333 62.549333 0 0 0-18.688-23.168 73.386667 73.386667 0 0 0-28.032-12.8c-10.794667-2.474667-30.549333-3.754667-59.306666-3.754667H225.450667v263.04h30.890666v-120.021333h10.794667l92.714667 120.021333h28.245333zM616.746667 85.333333L896 347.904V853.333333a85.333333 85.333333 0 0 1-85.333333 85.333334H213.333333a85.333333 85.333333 0 0 1-85.333333-85.333334V170.666667a85.333333 85.333333 0 0 1 85.333333-85.333334h403.413334z m244.352 295.381334L581.802667 118.186667v177.237333a85.333333 85.333333 0 0 0 85.333333 85.333333h193.962667zM384 128v85.333333h85.333333V128H384z m0 170.666667v85.333333h85.333333V298.666667H384z m85.333333-85.333334v85.333334h85.333334V213.333333h-85.333334z m0 213.333334v85.333333h85.333334v-85.333333h-85.333334z m-212.992 257.578666V601.6h43.093334c20.906667 0 36.224 3.285333 46.037333 9.856 9.813333 6.613333 14.72 17.152 14.72 31.616 0 14.506667-5.034667 25.045333-15.104 31.658667-10.026667 6.570667-25.6 9.728-46.677333 9.514666h-42.069334z m300.672 30.890667h-80.128l40.234667-88.746667 39.893333 88.746667z m265.770667 119.296l-93.056-120.021333c28.032 0 49.493333-6.528 64.298667-19.584 14.848-13.056 22.272-30.464 22.272-52.266667 0-11.52-2.261333-21.973333-6.826667-31.445333a62.549333 62.549333 0 0 0-18.688-23.168 73.386667 73.386667 0 0 0-27.989333-12.8c-10.794667-2.474667-30.549333-3.754667-59.306667-3.754667h-53.888v263.04h30.890667v-120.021333h10.794666l92.672 120.021333h38.826667z m-142.293333-150.186667V601.6h43.093333c20.864 0 36.181333 3.285333 46.037333 9.856 9.813333 6.613333 14.72 17.152 14.72 31.616 0 14.506667-5.034667 25.045333-15.104 31.658667-10.069333 6.570667-25.6 9.728-46.72 9.514666h-42.026666z" fill="#592F83" p-id="7778"></path></svg>